# AST/ASF file generated using VICON BodyLanguage
# -----------------------------------------------
:version 1.10
:name VICON
:units
  mass 1.0
  length 0.45
  angle deg
:documentation
   .ast/.asf automatically generated from VICON data using
   VICON BodyBuilder and BodyLanguage model FoxedUp or BRILLIANT.MOD
:root
   order TX TY TZ RX RY RZ
   axis XYZ
   position 0 0 0  
   orientation 0 0 0 
:bonedata
  begin
     id 1 
     name lhipjoint
     direction 0.561001 -0.76473 0.316963 
     length 2.4722 
     axis 0 0 0  XYZ
  end
  begin
     id 2 
     name lfemur
     direction 0.34202 -0.939693 0  
     length 7.59403  
     axis 0 0 20  XYZ
    dof rx ry rz
    limits (-160.0 20.0)
           (-70.0 70.0)
           (-60.0 70.0)
  end
  begin
     id 3 
     name ltibia
     direction 0.34202 -0.939693 0   
     length 7.89655   
     axis 0 0 20   XYZ
    dof rx
    limits (-10.0 170.0)
  end
  begin
     id 4 
     name lfoot
     direction 0.061296 -0.168409 0.98381   
     length 2.73287   
     axis -90 7.62852e-016 20   XYZ
    dof rx rz
    limits (-45.0 90.0)
           (-70.0 20.0)
  end
  begin
     id 5 
     name ltoes
     direction 1.53547e-011 -4.21984e-011 1   
     length 1.37057   
     axis -90 7.62852e-016 20   XYZ
    dof rx
    limits (-90.0 20.0)
  end
  begin
     id 6 
     name rhipjoint
     direction -0.559611 -0.765599 0.317323   
     length 2.46939  
     axis 0 0 0  XYZ 
  end
  begin
     id 7 
     name rfemur
     direction -0.34202 -0.939693 0   
     length 7.53712   
     axis 0 0 -20   XYZ
    dof rx ry rz
    limits (-160.0 20.0)
           (-70.0 70.0)
           (-70.0 60.0)
  end
  begin
     id 8 
     name rtibia
     direction -0.34202 -0.939693 0   
     length 8.12549   
     axis 0 0 -20   XYZ
    dof rx
    limits (-10.0 170.0)
 end
 begin
     id 9 
     name rfoot
     direction -0.066984 -0.184037 0.980634   
     length 2.67541  
     axis -90 -7.62852e-016 -20   XYZ
    dof rx rz
    limits (-45.0 90.0)
           (-20.0 70.0)
  end
  begin
     id 10 
     name rtoes
     direction -1.53549e-011 -4.21786e-011 1   
     length 1.34085   
     axis -90 -7.62852e-016 -20   XYZ
    dof rx
    limits (-90.0 20.0)
  end
  begin
     id 11 
     name lowerback
     direction -0.0522728 0.992594 -0.109658   
     length 2.05633   
     axis 0 0 0   XYZ
    dof rx ry rz
    limits (-20.0 45.0)
           (-30.0 30.0)
           (-30.0 30.0)
  end
  begin
     id 12 
     name upperback
     direction 0.00589338 0.999977 0.00335704   
     length 2.05845   
     axis 0 0 0   XYZ
    dof rx ry rz
    limits (-20.0 45.0)
           (-30.0 30.0)
           (-30.0 30.0)
  end
  begin
     id 13 
     name thorax
     direction 0.0292928 0.998059 0.0549487   
     length 2.09281   
     axis 0 0 0   XYZ
    dof rx ry rz
    limits (-20.0 45.0)
           (-30.0 30.0)
           (-30.0 30.0)
  end
  begin
     id 14 
     name lowerneck
     direction 0.0356368 0.980775 0.191858   
     length 1.84767   
     axis 0 0 0   XYZ
    dof rx ry rz
    limits (-20.0 45.0)
           (-30.0 30.0)
           (-30.0 30.0)
  end
  begin
     id 15 
     name upperneck
     direction -0.0227605 0.98931 -0.14404   
     length 1.89582   
     axis 0 0 0   XYZ
    dof rx ry rz
    limits (-20.0 45.0)
           (-30.0 30.0)
           (-30.0 30.0)
  end
  begin
     id 16
     name head
     direction -0.00932985 0.997511 -0.0698904  
     length 1.90213  
     axis 0 0 0   XYZ
    dof rx ry rz
    limits (-20.0 45.0)
           (-30.0 30.0)
           (-30.0 30.0)
  end
  begin
     id 17 
     name lclavicle
     direction 0.873442 0.479511 0.0846686  
     length 3.41193  
     axis 0 0 0   XYZ
    dof ry rz
    limits (-20.0 10.0)
           (0.0 20.0)
  end
  begin
     id 18 
     name lhumerus
     direction 1 -4.4897e-011 -5.62117e-018   
     length 5.59864   
     axis 180 -30 -90   XYZ
    dof rx ry rz
    limits (-60.0 90.0)
           (-90.0 90.0)
           (-90.0 90.0)
  end
  begin
     id 19
     name lradius
     direction 1 -4.48966e-011 -6.26295e-027   
     length 3.59542   
     axis 180 -30 -90   XYZ
    dof rx
    limits (-10.0 170.0)
  end
  begin
     id 20
     name lwrist
     direction 1 -4.48947e-011 -1.74096e-026   
     length 1.79771   
     axis 1.04567e-014 90 90   XYZ
    dof ry
    limits (-180.0 0.0)
 end
  begin
     id 21 
     name lhand
     direction 1 -4.49085e-011 -3.48469e-026   
     length 0.572014   
     axis 2.22196e-014 90 90   XYZ
    dof rx rz
    limits (-90.0 90.0)
           (-45.0 45.0)
  end
  begin
     id 22 
     name lfingers
     direction 1 -4.48884e-011 -6.96135e-026   
     length 0.461173   
     axis 4.44383e-014 90 90   XYZ
    dof rx
    limits (0.0 90.0)
  end
  begin
     id 23
     name lthumb
     direction 0.707107 -6.34976e-011 0.707107   
     length 0.662154   
     axis -90 45 -5.4397e-014   XYZ
    dof rx rz
    limits (-45.0 45.0)
           (-45.0 45.0)
  end
  begin
     id 24 
     name rclavicle
     direction -0.890242 0.443271 0.104786   
     length 3.46753  
     axis 0 0 0   XYZ 
    dof ry rz
    limits (-10.0 20.0)
           (-20.0 0.0)
  end
  begin
     id 25 
     name rhumerus
     direction -1 -4.48963e-011 -5.41723e-018  
     length 5.8094   
     axis 180 30 90   XYZ
    dof rx ry rz
    limits (-90.0 60.0)
           (-90.0 90.0)
           (-90.0 90.0)
  end
  begin
     id 26 
     name rradius
     direction -1 -4.48958e-011 -6.51059e-027   
     length 3.66953   
     axis 180 30 90   XYZ
    dof rx
    limits (-10.0 170.0)
  end
  begin
     id 27 
     name rwrist
     direction -1 -4.48975e-011 -1.74124e-026   
     length 1.83476   
     axis 1.04567e-014 -90 -90   XYZ
    dof ry
    limits (-180.0 0.0)
  end
  begin
     id 28
     name rhand
     direction -1 -4.49013e-011 -3.48326e-026   
     length 0.57843   
     axis 2.22196e-014 -90 -90   XYZ
    dof rx rz
    limits (-90.0 90.0)
           (-45.0 45.0)
  end
  begin
     id 29
     name rfingers
     direction -1 -4.49023e-011 -6.9669e-026   
     length 0.466345   
     axis 4.44383e-014 -90 -90   XYZ
    dof rx
    limits (0.0 90.0)
  end
  begin
     id 30
     name rthumb
     direction -0.707107 -6.34926e-011 0.707107   
     length 0.669581   
     axis -90 -45 5.4397e-014   XYZ
    dof rx rz
    limits (-45.0 45.0)
           (-45.0 45.0)
  end
:hierarchy
  begin
    root lhipjoint rhipjoint lowerback
    lhipjoint lfemur
    lfemur ltibia
    ltibia lfoot
    lfoot ltoes
    rhipjoint rfemur
    rfemur rtibia
    rtibia rfoot
    rfoot rtoes
    lowerback upperback
    upperback thorax
    thorax lowerneck lclavicle rclavicle
    lowerneck upperneck
    upperneck head
    lclavicle lhumerus
    lhumerus lradius
    lradius lwrist
    lwrist lhand lthumb
    lhand lfingers
    rclavicle rhumerus
    rhumerus rradius
    rradius rwrist
    rwrist rhand rthumb
    rhand rfingers
  end

#!OML:ASF H:\SkateBoarding\Project 1\Capture day 1\Session 1\Skater.ASF
:FULLY-SPECIFIED
:DEGREES
82
root 7.81516 16.827 -22.2764 9.66853 21.6148 7.04343
lowerback 10.0669 -0.720094 -5.94275
upperback 0.288041 -1.72118 -1.66119
thorax -5.231 -0.715146 1.84965
lowerneck -18.2151 -0.754887 3.33336
upperneck 33.7109 -1.67901 -1.2629
head 14.6601 -0.402844 -1.38347
rclavicle 1.15474e-014 9.75287e-016
rhumerus -31.8005 5.0682 -87.1775
rradius 43.425
rwrist -19.379
rhand -37.1944 -4.03454
rfingers 7.12502
rthumb -10.2622 -33.7642
lclavicle 1.15474e-014 9.75287e-016
lhumerus -29.4784 -14.3497 84.9358
lradius 54.103
lwrist 32.4057
lhand -22.9652 24.3854
lfingers 7.12502
lthumb 3.4767 54.3368
rfemur -54.742 1.31726 8.0911
rtibia 84.5493
rfoot -28.3312 22.544
rtoes -9.43707
lfemur 6.60627 -10.6094 -15.9203
ltibia 32.5554
lfoot -10.6859 -21.5487
ltoes 9.32327
83
root 7.79907 16.816 -22.0203 9.91711 21.8017 6.9692
lowerback 9.89089 -0.726598 -5.73889
upperback 0.0989272 -1.70483 -1.68423
thorax -5.33903 -0.706878 1.70727
lowerneck -18.2695 -0.843444 3.17032
upperneck 33.8957 -1.77544 -1.2012
head 14.757 -0.451214 -1.34971
rclavicle 1.9318e-014 1.74884e-014
rhumerus -31.9752 4.77691 -87.2101
rradius 42.9783
rwrist -19.094
rhand -36.9654 -3.94669
rfingers 7.12502
rthumb -10.0412 -33.6871
lclavicle 1.9318e-014 1.74884e-014
lhumerus -29.4067 -14.7629 85.1495
lradius 55.0589
lwrist 32.5698
lhand -22.7562 24.0282
lfingers 7.12502
lthumb 3.67851 53.9762
rfemur -55.128 1.045 8.23113
rtibia 84.7159
rfoot -28.4029 22.5334
rtoes -9.5822
lfemur 8.07709 -11.0692 -15.6499
ltibia 30.5005
lfoot -10.7736 -20.7078
ltoes 9.79488
84
root 7.78347 16.8199 -21.7554 10.1454 22.1212 6.92144
lowerback 9.68751 -0.773069 -5.51694
upperback -0.0686177 -1.7382 -1.73627
thorax -5.40668 -0.725763 1.53051
lowerneck -18.2494 -0.932688 3.131
upperneck 34.0445 -1.89077 -1.20123
head 14.8181 -0.501181 -1.36494
rclavicle -4.84134e-014 -1.32813e-014
rhumerus -32.2139 4.48484 -87.3438
rradius 42.5543
rwrist -18.8213
rhand -36.7268 -3.86591
rfingers 7.12502
rthumb -9.81104 -33.6173
lclavicle -4.84134e-014 -1.32813e-014
lhumerus -29.4447 -15.148 85.3195
lradius 56.073
lwrist 32.7837
lhand -22.5723 23.764
lfingers 7.12502
lthumb 3.85613 53.7089
rfemur -55.3401 0.68686 8.34239
rtibia 84.7998
rfoot -28.3057 22.6438
rtoes -9.33385
lfemur 9.69626 -11.784 -15.4517
ltibia 28.1756
lfoot -11.0081 -19.5635
ltoes 9.9856
85
root 7.76526 16.8294 -21.4859 10.2997 22.3785 6.70208
lowerback 9.34186 -0.7723 -5.38133
upperback -0.11365 -1.69222 -1.58914
thorax -5.26114 -0.708589 1.59538
lowerneck -18.3761 -1.00983 2.93174
upperneck 34.1288 -1.9152 -1.26172
head 14.8861 -0.54333 -1.36229
rclavicle -3.47578e-014 -1.63997e-014
rhumerus -32.2133 4.33922 -87.2644
rradius 42.0863
rwrist -18.4973
rhand -36.6063 -3.67216
rfingers 7.12502
rthumb -9.69486 -33.429
lclavicle -3.47578e-014 -1.63997e-014
lhumerus -29.3285 -15.3954 85.6714
lradius 57.0537
lwrist 32.9157
lhand -22.6311 23.8651
lfingers 7.12502
lthumb 3.79938 53.811
rfemur -55.4782 0.405045 8.73265
rtibia 84.7458
rfoot -28.3008 22.5831
rtoes -9.11153
lfemur 11.5976 -12.5415 -15.1319
ltibia 25.2901
lfoot -11.4204 -17.8637
ltoes 9.75041
86
root 7.74189 16.8424 -21.2088 10.3913 22.6453 6.49152
lowerback 9.22246 -0.792499 -4.98808
upperback -0.293172 -1.68283 -1.6945
thorax -5.39715 -0.710401 1.26321
lowerneck -18.2675 -1.06484 3.03865
upperneck 34.2505 -2.01692 -1.29033
head 14.9132 -0.573087 -1.41112
rclavicle -1.02747e-014 1.49089e-015
rhumerus -32.4819 3.92066 -87.5453
rradius 41.609
rwrist -18.0785
rhand -36.0973 -3.52177
rfingers 7.12502
rthumb -9.20364 -33.3009
lclavicle -1.02747e-014 1.49089e-015
lhumerus -29.5656 -15.8693 85.7077
lradius 58.0763
lwrist 33.2279
lhand -22.4277 23.7026
lfingers 7.12502
lthumb 3.99575 53.6448
rfemur -55.5104 0.181057 9.14406
rtibia 84.661
rfoot -28.543 22.2095
rtoes -9.49752
lfemur 13.7381 -13.1746 -14.7451
ltibia 21.9856
lfoot -11.352 -15.8985
ltoes 10.6764
87
root 7.71636 16.8649 -20.9254 10.4007 23.0244 6.31307
lowerback 9.12424 -0.895001 -4.76151
upperback -0.346921 -1.78888 -1.65409
thorax -5.3972 -0.767926 1.19122
lowerneck -18.3678 -1.07818 2.95195
upperneck 34.3471 -1.97335 -1.38534
head 14.9817 -0.577153 -1.43079
rclavicle -5.44173e-014 -7.72775e-015
rhumerus -32.5675 3.89886 -87.7225
rradius 41.1252
rwrist -17.6596
rhand -35.9797 -2.92235
rfingers 7.12502
rthumb -9.09024 -32.7065
lclavicle -5.44173e-014 -7.72775e-015
lhumerus -29.682 -15.9736 85.8534
lradius 59.0449
lwrist 33.3583
lhand -22.4799 23.7702
lfingers 7.12502
lthumb 3.94537 53.7134
rfemur -55.2942 -0.10529 9.54885
rtibia 84.4652
rfoot -29.2724 21.5237
rtoes -10.8333
lfemur 16.1915 -13.9664 -14.42
ltibia 18.2207
lfoot -11.5492 -13.4174
ltoes 10.3607
88
root 7.6875 16.8977 -20.6357 10.3834 23.3148 6.03852
lowerback 9.01304 -0.913528 -4.5115
upperback -0.437185 -1.7827 -1.62542
thorax -5.43576 -0.769911 1.0789
lowerneck -18.4783 -1.03934 3.03866
upperneck 34.4549 -1.89783 -1.52167
head 15.0567 -0.55006 -1.49269
rclavicle 1.86112e-014 -1.38652e-014
rhumerus -32.7274 3.72514 -87.8822
rradius 40.7686
rwrist -17.3689
rhand -35.8439 -2.76576
rfingers 7.12502
rthumb -8.95914 -32.5555
lclavicle 1.86112e-014 -1.38652e-014
lhumerus -29.9248 -16.2671 86.0095
lradius 60.0575
lwrist 33.7099
lhand -22.2063 23.5209
lfingers 7.12502
lthumb 4.20959 53.459
rfemur -55.0221 -0.190912 10.0439
rtibia 84.1474
rfoot -29.5814 21.1794
rtoes -11.1301
lfemur 19.0053 -14.6681 -14.0308
ltibia 13.6563
lfoot -11.9704 -10.2772
ltoes 11.1256
89
root 7.65448 16.9353 -20.3437 10.3645 23.7417 5.90654
lowerback 8.80929 -0.979664 -4.71678
upperback -0.385215 -1.86458 -1.37759
thorax -5.24716 -0.806303 1.45773
lowerneck -18.5497 -1.05549 2.84616
upperneck 34.4249 -1.76998 -1.74442
head 15.0607 -0.553643 -1.52965
rclavicle -5.61877e-014 -3.73591e-014
rhumerus -32.6013 3.99277 -87.791
rradius 40.2885
rwrist -16.8947
rhand -35.917 -2.2637
rfingers 7.12502
rthumb -9.02969 -32.0504
lclavicle -5.61877e-014 -3.73591e-014
lhumerus -30.0062 -16.1678 86.408
lradius 60.9712
lwrist 33.8001
lhand -22.3874 23.6666
lfingers 7.12502
lthumb 4.03464 53.6082
rfemur -54.5874 -0.435137 10.4261
rtibia 83.7549
rfoot -29.7723 21.0437
rtoes -11.0651
lfemur 22.6764 -15.3423 -13.7119
ltibia 7.35008
lfoot -12.274 -5.92495
ltoes 11.7244
90
root 7.62092 16.9841 -20.049 10.3754 24.153 5.80897
lowerback 8.77461 -1.09139 -4.72924
upperback -0.426791 -2.01007 -1.29666
thorax -5.25939 -0.875844 1.56725
lowerneck -18.6681 -1.03209 2.73998
upperneck 34.5109 -1.67004 -1.82229
head 15.1317 -0.534793 -1.52912
rclavicle 1.46542e-014 1.94188e-014
rhumerus -32.5554 4.14766 -87.9022
rradius 39.948
rwrist -16.5702
rhand -35.7093 -2.304
rfingers 7.12502
rthumb -8.82932 -32.0993
lclavicle 1.46542e-014 1.94188e-014
lhumerus -30.1723 -16.077 86.5485
lradius 61.8092
lwrist 33.9397
lhand -22.0775 23.4866
lfingers 7.12502
lthumb 4.33397 53.4223
rfemur -54.105 -0.684968 10.7891
rtibia 83.2441
rfoot -29.9093 20.975
rtoes -10.819
lfemur 26.7992 -16.0161 -13.4285
ltibia 9.54166e-015
lfoot -12.7484 -0.55106
ltoes 12.8046
91
root 7.58683 17.0421 -19.7512 10.4762 24.6828 5.91138
lowerback 8.76326 -1.22382 -4.86408
upperback -0.493563 -2.20229 -1.29513
thorax -5.3069 -0.964635 1.66922
lowerneck -18.6821 -1.03845 2.63286
upperneck 34.574 -1.63882 -1.82109
head 15.167 -0.534021 -1.50558
rclavicle 4.68386e-015 1.38652e-014
rhumerus -32.5964 4.33217 -88.0759
rradius 39.6881
rwrist -16.3486
rhand -35.6595 -2.23574
rfingers 7.12502
rthumb -8.78127 -32.0331
lclavicle 4.68386e-015 1.38652e-014
lhumerus -30.456 -16.1097 86.7135
lradius 62.7005
lwrist 34.1315
lhand -22.1166 23.5574
lfingers 7.12502
lthumb 4.2962 53.4939
rfemur -53.5331 -1.09594 10.981
rtibia 82.6573
rfoot -30.2371 20.5354
rtoes -11.3765
lfemur 27.1082 -16.8136 -13.3374
ltibia 4.45278e-014
lfoot -13.3516 1.74416
ltoes 13.1008
